<svg xmlns="http://www.w3.org/2000/svg" viewBox="0 0 600 40" fill="none">
  <!-- Horizontal lines -->
  <line x1="20" y1="20" x2="580" y2="20" stroke="#1e1208" stroke-width="1"/>
  <line x1="40" y1="18" x2="560" y2="18" stroke="#1e1208" stroke-width="0.5"/>
  <line x1="40" y1="22" x2="560" y2="22" stroke="#1e1208" stroke-width="0.5"/>
  <!-- Diamonds -->
  <polygon points="100,20 105,15 110,20 105,25" fill="#2a1a10" stroke="#4a3020" stroke-width="0.5"/>
  <polygon points="200,20 205,15 210,20 205,25" fill="#2a1a10" stroke="#4a3020" stroke-width="0.5"/>
  <polygon points="390,20 395,15 400,20 395,25" fill="#2a1a10" stroke="#4a3020" stroke-width="0.5"/>
  <polygon points="490,20 495,15 500,20 495,25" fill="#2a1a10" stroke="#4a3020" stroke-width="0.5"/>
  <!-- Center diamond (larger, accent) -->
  <polygon points="292,20 300,10 308,20 300,30" fill="#4a3020" stroke="#d4824a" stroke-width="1"/>
  <polygon points="296,20 300,14 304,20 300,26" fill="#7a5030"/>
  <!-- Music notes -->
  <text x="150" y="24" fill="#2a1a10" font-size="14" font-family="serif">♪</text>
  <text x="250" y="16" fill="#2a1a10" font-size="12" font-family="serif">♫</text>
  <text x="350" y="24" fill="#2a1a10" font-size="14" font-family="serif">♪</text>
  <text x="450" y="16" fill="#2a1a10" font-size="12" font-family="serif">♫</text>
  <!-- End caps -->
  <circle cx="30" cy="20" r="3" fill="#2a1a10"/>
  <circle cx="570" cy="20" r="3" fill="#2a1a10"/>
</svg>
